<?xml version="1.0" encoding="UTF-8" standalone="no"?><!-- Generator: Gravit.io --><svg xmlns="http://www.w3.org/2000/svg" xmlns:xlink="http://www.w3.org/1999/xlink" style="isolation:isolate" viewBox="0 0 256 256" width="256pt" height="256pt"><defs><clipPath id="_clipPath_h34inqRwkz1uVOHCei5kTXudOW3M1wG2"><rect width="256" height="256"/></clipPath></defs><g clip-path="url(#_clipPath_h34inqRwkz1uVOHCei5kTXudOW3M1wG2)"><g><linearGradient id="_lgradient_0" x1="0" y1="0.5" x2="1" y2="0.5"><stop offset="0%" stop-opacity="1" style="stop-color:rgb(123,17,115)"/><stop offset="100%" stop-opacity="1" style="stop-color:rgb(255,64,146)"/><stop offset="100%" stop-opacity="1" style="stop-color:rgb(0,0,0)"/></linearGradient><path d=" M 99 62 Q 127.681 115.268 89.228 127.276 C 70.432 133.146 48.307 155.698 72.226 182.306 Q 100.082 212.065 38.315 221.518 Q 69.816 208.87 57.693 194.443 C 21.006 150.787 13.881 106.326 99 62 Z " fill="rgb(255,64,146)" fill-opacity="0.75" vector-effect="non-scaling-stroke" stroke-width="9" stroke="url(#_lgradient_0)" stroke-linejoin="miter" stroke-linecap="square" stroke-miterlimit="3"/><linearGradient id="_lgradient_1" x1="0" y1="0.5" x2="1" y2="0.5"><stop offset="0%" stop-opacity="1" style="stop-color:rgb(123,17,115)"/><stop offset="100%" stop-opacity="1" style="stop-color:rgb(255,64,146)"/><stop offset="100%" stop-opacity="1" style="stop-color:rgb(0,0,0)"/></linearGradient><path d=" M 152 60 Q 129.291 115.268 167.744 127.276 C 186.54 133.146 208.665 155.698 184.746 182.306 Q 156.89 212.065 218.657 221.518 Q 187.156 208.87 199.279 194.443 C 235.966 150.787 237.119 104.326 152 60 Z " fill="rgb(255,64,146)" fill-opacity="0.75" vector-effect="non-scaling-stroke" stroke-width="9" stroke="url(#_lgradient_1)" stroke-linejoin="miter" stroke-linecap="square" stroke-miterlimit="3"/><linearGradient id="_lgradient_2" x1="0" y1="0.5" x2="1" y2="0.5"><stop offset="0%" stop-opacity="1" style="stop-color:rgb(123,17,115)"/><stop offset="100%" stop-opacity="1" style="stop-color:rgb(255,64,146)"/><stop offset="100%" stop-opacity="1" style="stop-color:rgb(0,0,0)"/></linearGradient><path d=" M 133.243 121.088 C 170.129 61.219 118.106 56.513 98.082 85.746 C 87.895 100.616 105.586 117.024 89.854 150.106 Q 71.601 187.089 123.355 205 Q 96.308 175.575 105.599 161.046 C 116.107 144.613 132.383 134.988 133.243 121.088 Z " fill="rgb(255,64,146)" fill-opacity="0.75" vector-effect="non-scaling-stroke" stroke-width="9" stroke="url(#_lgradient_2)" stroke-linejoin="miter" stroke-linecap="square" stroke-miterlimit="3"/><linearGradient id="_lgradient_3" x1="0" y1="0.5" x2="1" y2="0.5"><stop offset="0%" stop-opacity="1" style="stop-color:rgb(123,17,115)"/><stop offset="100%" stop-opacity="1" style="stop-color:rgb(255,64,146)"/><stop offset="100%" stop-opacity="1" style="stop-color:rgb(0,0,0)"/></linearGradient><path d=" M 133.243 126.483 C 165.455 3.12 172.585 43.912 176 150.106 Q 205.912 197.256 118.416 226 Q 160.18 197.015 144.881 178.513 C 127.577 157.588 134.446 144.264 133.243 126.483 Z " fill="rgb(255,64,146)" fill-opacity="0.75" vector-effect="non-scaling-stroke" stroke-width="9" stroke="url(#_lgradient_3)" stroke-linejoin="miter" stroke-linecap="square" stroke-miterlimit="3"/></g><linearGradient id="_lgradient_4" x1="-0.22171253822629977" y1="-0.009757000316747116" x2="1.215596330275229" y2="1.2150206645154829" gradientTransform="matrix(218,0,0,117.572,19,29.814)" gradientUnits="userSpaceOnUse"><stop offset="0%" stop-opacity="1" style="stop-color:rgb(210,40,114)"/><stop offset="100%" stop-opacity="1" style="stop-color:rgb(123,17,115)"/><stop offset="100%" stop-opacity="1" style="stop-color:rgb(0,0,0)"/></linearGradient><radialGradient id="_rgradient_0" fx="0.5" fy="0.5" cx="0.5" cy="0.5" r="0.5" gradientTransform="matrix(2.174,3.247,-0.587,1.737,-0.294,-1.992)" gradientUnits="userSpaceOnUse"><stop offset="0%" stop-opacity="1" style="stop-color:rgb(255,64,146)"/><stop offset="100%" stop-opacity="1" style="stop-color:rgb(123,17,115)"/></radialGradient><path d=" M 19 110.958 C 19 70.852 67.841 29.814 128 29.814 C 188.159 29.814 237 70.852 237 110.958 C 237 151.064 188.159 147.292 128 147.292 C 67.841 147.292 19 151.064 19 110.958 Z " fill="url(#_lgradient_4)" fill-opacity="0.9" vector-effect="non-scaling-stroke" stroke-width="9" stroke="url(#_rgradient_0)" stroke-linejoin="miter" stroke-linecap="square" stroke-miterlimit="3"/><clipPath id="_clipPath_mApkOjRXXDJcoAOPBFG69oeS5nXwUg8k"><path d=" M 19 110.958 C 19 70.852 67.841 29.814 128 29.814 C 188.159 29.814 237 70.852 237 110.958 C 237 151.064 188.159 147.292 128 147.292 C 67.841 147.292 19 151.064 19 110.958 Z " fill="url(#_lgradient_4)" fill-opacity="0.9" vector-effect="non-scaling-stroke" stroke-width="9" stroke="url(#_rgradient_0)" stroke-linejoin="miter" stroke-linecap="square" stroke-miterlimit="3"/></clipPath><g clip-path="url(#_clipPath_mApkOjRXXDJcoAOPBFG69oeS5nXwUg8k)"><g style="opacity:0.8;"><path d=" M 132.455 53.221 C 136.391 48.332 151.583 50.478 166.36 58.009 C 181.137 65.54 189.939 75.622 186.003 80.511 C 182.067 85.399 166.875 83.253 152.098 75.722 C 137.321 68.192 128.52 58.109 132.455 53.221 Z " fill="rgb(255,255,255)" fill-opacity="0.9"/><path d=" M 129.386 40.869 C 131.385 46.818 146.38 50.068 162.851 48.121 C 179.321 46.175 191.071 39.766 189.072 33.817 C 187.073 27.868 172.078 24.618 155.608 26.564 C 139.137 28.51 127.388 34.92 129.386 40.869 Z " fill="rgb(255,255,255)" fill-opacity="0.9"/><path d=" M 123.545 53.221 C 119.609 48.332 104.417 50.478 89.64 58.009 C 74.863 65.54 66.061 75.622 69.997 80.511 C 73.933 85.399 89.125 83.253 103.902 75.722 C 118.679 68.192 127.48 58.109 123.545 53.221 Z " fill="rgb(255,255,255)" fill-opacity="0.9"/><path d=" M 126.614 40.869 C 124.615 46.818 109.62 50.068 93.149 48.121 C 76.679 46.175 64.929 39.766 66.928 33.817 C 68.927 27.868 83.922 24.618 100.392 26.564 C 116.863 28.51 128.612 34.92 126.614 40.869 Z " fill="rgb(255,255,255)" fill-opacity="0.9"/></g></g><path d=" M 19 110.958 C 19 70.852 67.841 29.814 128 29.814 C 188.159 29.814 237 70.852 237 110.958 C 237 151.064 188.159 147.292 128 147.292 C 67.841 147.292 19 151.064 19 110.958 Z " fill="transparent" fill-opacity="0.9" vector-effect="non-scaling-stroke" stroke-width="9" stroke="url(#_rgradient_0)" stroke-linejoin="miter" stroke-linecap="square" stroke-miterlimit="3"/></g></svg>