<?xml version="1.0" encoding="UTF-8" standalone="no"?><!-- Generator: Gravit.io --><svg xmlns="http://www.w3.org/2000/svg" xmlns:xlink="http://www.w3.org/1999/xlink" style="isolation:isolate" viewBox="401.212 305.477 195.576 196.047" width="195.576pt" height="196.047pt"><g><path d=" M 592.611 404.866 C 589.215 447.33 559.569 483.11 518.476 494.339 C 477.39 505.569 433.672 489.853 409.139 455.035 C 407.648 454.553 406.639 453.162 406.643 451.595 C 406.648 450.028 407.664 448.643 409.158 448.169 C 410.652 447.695 412.281 448.241 413.188 449.52 C 450.844 461.946 492.288 451.216 519.183 422.079 C 546.079 392.941 553.464 350.773 538.069 314.23 C 537.473 312.785 537.872 311.122 539.059 310.105 C 540.236 309.079 541.94 308.93 543.277 309.737 C 576.552 329.411 595.701 366.333 592.611 404.866 Z " fill="rgb(249,227,174)"/><path d=" M 592.611 404.866 C 590.099 436.249 573.113 464.672 546.663 481.75 C 520.214 498.828 487.319 502.611 457.682 491.985 C 455.136 491.108 453.112 489.141 452.162 486.62 C 451.213 484.099 451.436 481.287 452.771 478.947 C 454.963 475.195 459.521 473.541 463.609 475.014 C 472.66 478.244 482.202 479.88 491.812 479.85 L 496.904 479.85 C 524.016 478.213 548.612 463.418 562.762 440.234 C 576.924 417.061 578.857 388.426 567.937 363.56 C 566.043 359.068 568.087 353.885 572.538 351.895 C 574.705 350.891 577.183 350.794 579.422 351.624 C 581.65 352.455 583.467 354.163 584.442 356.337 C 591.116 371.595 593.922 388.264 592.611 404.866 Z " fill="rgb(246,211,151)"/><path d=" M 545.126 306.494 C 542.449 304.9 539.052 305.202 536.697 307.242 C 534.342 309.283 533.561 312.602 534.757 315.479 C 540.326 328.608 542.927 342.805 542.374 357.056 C 541.252 387.703 525.779 416.037 500.603 433.549 C 475.419 451.058 443.466 455.697 414.343 446.074 C 412.538 443.506 409.28 442.399 406.283 443.334 C 403.287 444.269 401.237 447.033 401.212 450.172 C 401.187 453.311 403.193 456.107 406.174 457.09 C 425.728 485.024 457.714 501.62 491.812 501.523 C 540.297 501.631 582.517 468.447 593.868 421.31 C 604.666 376.481 584.876 329.864 545.126 306.494 Z  M 589.043 404.584 C 585.774 445.552 557.177 480.075 517.534 490.912 C 477.893 501.752 435.711 486.567 412.075 452.947 C 443.337 463.277 477.638 458.302 504.676 439.516 C 531.725 420.737 548.364 390.329 549.597 357.424 C 550.19 342.147 547.394 326.921 541.428 312.857 C 573.599 331.751 592.104 367.402 589.043 404.584 Z " fill="rgb(100,62,132)"/><path d=" M 488.2 469.015 C 486.214 469.015 484.589 470.64 484.589 472.627 L 484.589 479.85 C 484.589 481.836 486.214 483.461 488.2 483.461 C 490.187 483.461 491.812 481.836 491.812 479.85 L 491.812 472.627 C 491.812 470.64 490.187 469.015 488.2 469.015 Z  M 509.87 469.297 C 509.33 467.393 507.359 466.279 505.449 466.797 C 503.54 467.316 502.403 469.274 502.9 471.189 L 504.778 478.16 C 505.381 480.003 507.325 481.049 509.196 480.536 C 511.067 480.023 512.206 478.132 511.784 476.238 L 509.87 469.297 Z  M 526.559 461.395 C 525.522 459.76 523.379 459.237 521.705 460.21 C 520.023 461.173 519.407 463.296 520.311 465.01 L 523.923 471.258 C 524.961 472.891 527.102 473.416 528.778 472.447 C 530.454 471.479 531.068 469.361 530.171 467.646 L 526.559 461.395 Z  M 470.901 466.743 C 468.978 466.236 467.006 467.376 466.488 469.297 L 464.61 476.238 C 464.221 477.502 464.554 478.878 465.477 479.825 C 466.401 480.772 467.767 481.139 469.041 480.782 C 470.311 480.424 471.285 479.402 471.58 478.116 L 473.472 471.146 C 473.968 469.223 472.823 467.259 470.905 466.743 L 470.901 466.743 Z  M 568.883 377.172 C 569.291 378.822 570.796 379.963 572.495 379.91 L 573.354 379.91 C 574.284 379.684 575.085 379.097 575.58 378.279 C 576.075 377.461 576.223 376.479 575.991 375.551 C 575.273 372.613 574.393 369.716 573.354 366.876 C 572.606 365.09 570.585 364.209 568.768 364.878 C 566.95 365.546 565.981 367.526 566.568 369.371 C 567.486 371.925 568.248 374.536 568.88 377.172 L 568.883 377.172 Z  M 570.985 392.016 C 571.577 405.854 568.376 419.592 561.729 431.743 C 561.248 432.581 561.121 433.576 561.375 434.508 C 561.629 435.439 562.244 436.232 563.083 436.709 C 564.835 437.71 567.049 437.107 568.049 435.355 C 575.288 422.093 578.784 407.112 578.165 392.016 C 578.049 390.048 576.378 388.536 574.408 388.616 C 572.438 388.697 570.896 390.341 570.942 392.312 L 570.985 392.016 Z " fill="rgb(141,108,159)"/></g><g><path d=" M 403.32 360.479 C 404.531 376.535 412.156 390.215 422.427 393.13 C 431.98 395.822 451.625 370.436 458.442 363.573 C 465.304 356.711 490.331 337.47 487.999 327.558 C 483.693 309.348 446.557 295.489 418.48 323.611 C 414.757 327.334 411.752 331.325 409.509 335.452 C 404.262 343.839 402.961 355.949 403.32 360.479 L 403.32 360.479 Z " fill="rgb(185,54,146)"/><path d=" M 402.019 349.356 C 402.288 348.01 402.647 346.62 403.006 345.319 C 403.409 344.204 404.61 343.594 405.748 343.926 C 406.887 344.258 407.571 345.418 407.312 346.575 C 406.953 347.786 406.639 349.042 406.415 350.253 C 406.19 351.284 405.249 352.047 404.217 352.047 C 404.082 352.047 403.903 352.047 403.768 352.002 C 403.185 351.883 402.674 351.537 402.346 351.041 C 402.018 350.545 401.9 349.938 402.019 349.356 Z  M 540.206 422.104 C 526.392 423.091 515.538 416.498 508.81 410.757 C 502.038 404.971 496.431 397.66 491.004 390.574 C 489.569 388.69 488.044 386.717 486.564 384.833 C 480.016 376.535 472.57 368.193 462.569 362.811 C 463.555 361.914 464.677 360.927 465.888 359.851 C 468.04 357.967 470.104 356.038 472.122 354.199 C 478.356 354.513 482.393 358.819 485.936 368.911 C 489.39 378.733 496.79 388.152 505.76 394.117 C 513.116 399.006 521.413 401.607 529.038 401.607 C 532.626 401.607 536.125 401.024 539.264 399.858 C 540.43 399.41 541.014 398.109 540.565 396.988 C 540.116 395.822 538.816 395.238 537.695 395.687 C 529.352 398.827 517.781 396.763 508.272 390.439 C 500.064 385.012 493.337 376.401 490.197 367.475 C 487.775 360.479 484.007 352.63 476.248 350.387 C 476.921 349.759 477.549 349.086 478.222 348.458 C 481.451 347.292 485.039 348.593 487.237 350.567 C 490.152 353.123 491.812 357.025 493.023 360.524 C 493.337 361.465 493.65 362.362 493.964 363.304 C 495.041 366.489 496.117 369.808 497.867 372.858 C 502.486 380.841 511.681 385.685 521.144 385.685 C 523.746 385.685 526.347 385.326 528.904 384.564 C 530.07 384.205 530.787 382.949 530.429 381.783 C 530.07 380.617 528.814 379.899 527.648 380.258 C 517.781 383.218 506.657 379.047 501.769 370.615 C 500.244 367.969 499.257 365.009 498.225 361.914 C 497.911 360.972 497.597 359.985 497.283 359.043 C 495.893 355.007 493.964 350.477 490.242 347.203 C 488.117 345.339 485.502 344.125 482.707 343.704 C 488.134 337.47 491.363 331.819 490.287 327.154 C 488.223 318.363 479.298 310.559 467.592 307.24 C 450.19 302.306 431.262 307.868 417 322.131 C 413.232 325.898 410.092 330.025 407.626 334.465 C 407.043 335.541 407.401 336.932 408.478 337.515 C 409.554 338.098 410.945 337.739 411.528 336.663 C 413.77 332.581 416.686 328.769 420.139 325.315 C 433.236 312.219 450.504 307.061 466.336 311.546 C 476.517 314.416 484.187 320.965 485.891 328.186 C 486.788 331.998 481.675 338.546 475.62 344.736 C 475.172 344.96 474.813 345.319 474.634 345.767 C 473.153 347.248 471.673 348.683 470.193 350.028 C 469.834 350.208 469.52 350.522 469.296 350.88 C 466.964 353.033 464.766 355.007 462.972 356.577 C 460.505 358.774 458.352 360.703 456.917 362.093 C 455.482 363.529 453.598 365.681 451.356 368.148 C 448.979 370.794 446.332 373.799 443.507 376.76 C 443.103 376.984 442.744 377.298 442.565 377.746 C 440.367 380.034 438.08 382.276 435.837 384.25 C 428.078 391.112 424.535 391.426 423.099 391.022 C 421.44 390.574 419.87 389.767 418.39 388.735 C 422.875 387.3 430.41 383.622 438.035 374.517 C 450.145 360.03 457.949 352.316 464.183 348.638 C 471.225 344.512 480.419 332.536 480.823 332.043 C 481.361 331.37 481.227 330.383 480.554 329.845 C 479.872 329.315 478.89 329.435 478.356 330.114 C 478.266 330.249 469.117 342.09 462.613 345.902 C 455.975 349.804 448.171 357.474 435.658 372.454 C 427.181 382.59 418.794 385.461 415.519 386.223 C 409.868 380.527 405.966 370.884 405.697 360.389 C 405.652 359.133 404.621 358.191 403.41 358.191 C 402.154 358.236 401.212 359.268 401.212 360.479 C 401.66 377.343 410.406 391.964 421.933 395.238 C 422.606 395.418 423.324 395.508 424.041 395.508 C 429.02 395.508 435.075 391.202 441.668 384.878 C 442.071 387.479 443.238 390.036 445.121 392.144 C 448.395 395.866 452.925 397.795 456.962 399.185 C 457.904 399.499 458.846 399.813 459.833 400.127 C 462.972 401.159 465.932 402.146 468.534 403.67 C 476.966 408.559 481.137 419.682 478.177 429.55 C 477.818 430.716 478.491 431.972 479.702 432.33 C 479.926 432.375 480.15 432.42 480.33 432.42 C 481.326 432.42 482.203 431.762 482.483 430.806 C 485.981 419.01 480.958 405.644 470.776 399.768 C 467.726 398.019 464.407 396.943 461.223 395.866 C 460.281 395.552 459.384 395.238 458.442 394.924 C 454.989 393.713 451.087 392.099 448.485 389.139 C 446.512 386.896 445.211 383.308 446.422 380.034 C 447.05 379.406 447.678 378.733 448.261 378.06 C 450.504 385.909 458.352 389.677 465.394 392.144 C 474.32 395.283 482.931 402.011 488.358 410.219 C 494.682 419.727 496.745 431.299 493.606 439.641 C 493.329 440.329 493.419 441.109 493.844 441.716 C 494.27 442.322 494.973 442.673 495.714 442.646 C 496.611 442.646 497.463 442.108 497.822 441.211 C 501.499 431.389 499.302 418.561 492.126 407.707 C 486.16 398.737 476.742 391.336 466.919 387.883 C 456.648 384.295 452.342 380.168 452.163 373.799 C 453.015 372.858 453.912 371.871 454.764 370.884 C 456.514 368.956 458.039 367.206 459.25 365.906 C 469.162 370.884 476.607 379.182 483.11 387.434 C 484.591 389.318 486.071 391.247 487.506 393.13 C 493.067 400.396 498.853 407.887 505.94 413.986 C 512.757 419.817 523.611 426.545 537.425 426.545 C 538.457 426.545 539.533 426.5 540.565 426.41 C 541.821 426.32 542.718 425.244 542.628 423.988 C 542.494 422.957 541.417 422.015 540.206 422.104 L 540.206 422.104 Z " fill="rgb(100,62,132)"/></g></svg>